<svg width="16" height="16" viewBox="0 0 16 16" fill="none" xmlns="http://www.w3.org/2000/svg">
<path d="M15.8571 6.44856V12.8214C15.8571 13.4371 15.6126 14.0276 15.1772 14.4629C14.7419 14.8983 14.1514 15.1428 13.5357 15.1428H2.46429C1.8486 15.1428 1.25814 14.8983 0.822787 14.4629C0.387435 14.0276 0.142857 13.4371 0.142857 12.8214V6.44856C0.142857 6.37499 0.147142 6.30142 0.154999 6.22928L7.71571 10.9543C7.78991 11.0007 7.87434 11.0282 7.96163 11.0344C8.04892 11.0406 8.1364 11.0254 8.21643 10.99L8.28429 10.9543L15.845 6.22928C15.8529 6.30142 15.8571 6.37499 15.8571 6.44856ZM8.29429 0.40999L14.9729 4.80785C15.1493 4.92356 15.3021 5.06499 15.43 5.22499L8 9.86785L0.57 5.22499C0.697857 5.06499 0.851428 4.92356 1.02714 4.80785L7.70571 0.40999C7.79319 0.352386 7.89562 0.321686 8.00036 0.321686C8.10509 0.321686 8.20753 0.352386 8.295 0.40999H8.29429Z" fill="#0883D1"/>
</svg>
