<svg width="12" height="12" viewBox="0 0 12 12" fill="none" xmlns="http://www.w3.org/2000/svg">
<path d="M5.6 3.2H6.4V0H5.6V3.2ZM4 1.6V3.2H3.2V1.6H4Z" fill="#747474"/>
<path fill-rule="evenodd" clip-rule="evenodd" d="M0 5.2C0 4.88174 0.126428 4.57652 0.351472 4.35147C0.576515 4.12643 0.88174 4 1.2 4H8.4C8.64826 3.99987 8.89045 4.07674 9.09319 4.22002C9.29593 4.3633 9.44925 4.56594 9.532 4.8H10.8C11.1183 4.8 11.4235 4.92643 11.6485 5.15147C11.8736 5.37652 12 5.68174 12 6V7.6C12 7.91826 11.8736 8.22348 11.6485 8.44853C11.4235 8.67357 11.1183 8.8 10.8 8.8H9.6V9.2C9.6 9.94261 9.305 10.6548 8.7799 11.1799C8.2548 11.705 7.54261 12 6.8 12H2.8C2.05739 12 1.3452 11.705 0.820101 11.1799C0.294999 10.6548 0 9.94261 0 9.2L0 5.2ZM9.6 8H10.8C10.9061 8 11.0078 7.95786 11.0828 7.88284C11.1579 7.80783 11.2 7.70609 11.2 7.6V6C11.2 5.89391 11.1579 5.79217 11.0828 5.71716C11.0078 5.64214 10.9061 5.6 10.8 5.6H9.6V8Z" fill="#747474"/>
</svg>
