<svg width="34" height="42" viewBox="0 0 34 42" fill="none" xmlns="http://www.w3.org/2000/svg">
<path d="M11.25 30.5833H17M1.66667 5.6666V36.3333C1.66667 37.3499 2.07054 38.325 2.78943 39.0438C3.50832 39.7627 4.48334 40.1666 5.5 40.1666H28.5C29.5167 40.1666 30.4917 39.7627 31.2106 39.0438C31.9295 38.325 32.3333 37.3499 32.3333 36.3333V13.9888C32.3333 13.4781 32.2312 12.9726 32.033 12.5019C31.8349 12.0312 31.5447 11.6049 31.1795 11.2479L22.6695 2.92577C21.9534 2.22553 20.9916 1.83339 19.99 1.83327H5.5C4.48334 1.83327 3.50832 2.23713 2.78943 2.95602C2.07054 3.67491 1.66667 4.64994 1.66667 5.6666V5.6666ZM11.25 22.9166H22.75H11.25Z" stroke="#0883D1" stroke-width="2" stroke-linecap="round" stroke-linejoin="round"/>
<path d="M20.8333 1.83327V9.49993C20.8333 10.5166 21.2372 11.4916 21.9561 12.2105C22.675 12.9294 23.65 13.3333 24.6667 13.3333H32.3333" stroke="#0883D1" stroke-width="2" stroke-linejoin="round"/>
</svg>
