<svg width="1736" height="44" viewBox="0 0 1736 44" fill="none" xmlns="http://www.w3.org/2000/svg">
<path d="M-202 11.8254C-185.286 11.8254 -175.914 1 -159.2 1C-142.486 1 -133.114 11.8254 -116.4 11.8254C-99.6856 11.8254 -90.3144 1 -73.6 1C-56.8856 1 -47.5144 11.8254 -30.8 11.8254C-14.0856 11.8254 -4.71444 1 12 1C28.7144 1 38.0856 11.8254 54.8 11.8254C71.5144 11.8254 80.8856 1 97.6 1C114.314 1 123.686 11.8254 140.4 11.8254C157.114 11.8254 166.486 1 183.2 1C199.914 1 209.286 11.8254 226 11.8254C242.714 11.8254 252.086 1 268.8 1C285.514 1 294.886 11.8254 311.6 11.8254C328.314 11.8254 337.686 1 354.4 1C371.114 1 380.486 11.8254 397.2 11.8254C413.914 11.8254 423.286 1 440 1C456.714 1 466.086 11.8254 482.8 11.8254C499.514 11.8254 508.886 1 525.6 1C542.314 1 551.686 11.8254 568.4 11.8254C585.114 11.8254 594.486 1 611.2 1C627.914 1 637.286 11.8254 654 11.8254C670.714 11.8254 680.086 1 696.8 1C713.514 1 722.886 11.8254 739.6 11.8254C756.314 11.8254 765.686 1 782.4 1C799.114 1 808.485 11.8254 825.2 11.8254C841.914 11.8254 851.286 1 868 1C884.714 1 894.086 11.8254 910.8 11.8254C927.514 11.8254 936.886 1 953.6 1C970.314 1 979.686 11.8254 996.4 11.8254C1013.11 11.8254 1022.49 1 1039.2 1C1055.91 1 1065.29 11.8254 1082 11.8254C1098.71 11.8254 1108.09 1 1124.8 1C1141.51 1 1150.89 11.8254 1167.6 11.8254C1184.31 11.8254 1193.69 1 1210.4 1C1227.11 1 1236.49 11.8254 1253.2 11.8254C1269.91 11.8254 1279.29 1 1296 1C1312.71 1 1322.09 11.8254 1338.8 11.8254C1355.51 11.8254 1364.89 1 1381.6 1C1398.31 1 1407.69 11.8254 1424.4 11.8254C1441.11 11.8254 1450.49 1 1467.2 1C1483.91 1 1493.29 11.8254 1510 11.8254C1526.71 11.8254 1536.09 1 1552.8 1C1569.51 1 1578.89 11.8254 1595.6 11.8254C1612.31 11.8254 1621.69 1 1638.4 1C1655.11 1 1664.49 11.8254 1681.2 11.8254C1697.91 11.8254 1707.29 1 1724 1C1740.71 1 1750.09 11.8254 1766.8 11.8254C1783.51 11.8254 1792.89 1 1809.6 1C1826.31 1 1835.69 11.8254 1852.4 11.8254C1869.11 11.8254 1878.49 1 1895.2 1C1911.91 1 1921.29 11.8254 1938 11.8254M-202 20.6825C-185.286 20.6825 -175.914 9.85714 -159.2 9.85714C-142.486 9.85714 -133.114 20.6825 -116.4 20.6825C-99.6856 20.6825 -90.3144 9.85714 -73.6 9.85714C-56.8856 9.85714 -47.5144 20.6825 -30.8 20.6825C-14.0856 20.6825 -4.71444 9.85714 12 9.85714C28.7144 9.85714 38.0856 20.6825 54.8 20.6825C71.5144 20.6825 80.8856 9.85714 97.6 9.85714C114.314 9.85714 123.686 20.6825 140.4 20.6825C157.114 20.6825 166.486 9.85714 183.2 9.85714C199.914 9.85714 209.286 20.6825 226 20.6825C242.714 20.6825 252.086 9.85714 268.8 9.85714C285.514 9.85714 294.886 20.6825 311.6 20.6825C328.314 20.6825 337.686 9.85714 354.4 9.85714C371.114 9.85714 380.486 20.6825 397.2 20.6825C413.914 20.6825 423.286 9.85714 440 9.85714C456.714 9.85714 466.086 20.6825 482.8 20.6825C499.514 20.6825 508.886 9.85714 525.6 9.85714C542.314 9.85714 551.686 20.6825 568.4 20.6825C585.114 20.6825 594.486 9.85714 611.2 9.85714C627.914 9.85714 637.286 20.6825 654 20.6825C670.714 20.6825 680.086 9.85714 696.8 9.85714C713.514 9.85714 722.886 20.6825 739.6 20.6825C756.314 20.6825 765.686 9.85714 782.4 9.85714C799.114 9.85714 808.485 20.6825 825.2 20.6825C841.914 20.6825 851.286 9.85714 868 9.85714C884.714 9.85714 894.086 20.6825 910.8 20.6825C927.514 20.6825 936.886 9.85714 953.6 9.85714C970.314 9.85714 979.686 20.6825 996.4 20.6825C1013.11 20.6825 1022.49 9.85714 1039.2 9.85714C1055.91 9.85714 1065.29 20.6825 1082 20.6825C1098.71 20.6825 1108.09 9.85714 1124.8 9.85714C1141.51 9.85714 1150.89 20.6825 1167.6 20.6825C1184.31 20.6825 1193.69 9.85714 1210.4 9.85714C1227.11 9.85714 1236.49 20.6825 1253.2 20.6825C1269.91 20.6825 1279.29 9.85714 1296 9.85714C1312.71 9.85714 1322.09 20.6825 1338.8 20.6825C1355.51 20.6825 1364.89 9.85714 1381.6 9.85714C1398.31 9.85714 1407.69 20.6825 1424.4 20.6825C1441.11 20.6825 1450.49 9.85714 1467.2 9.85714C1483.91 9.85714 1493.29 20.6825 1510 20.6825C1526.71 20.6825 1536.09 9.85714 1552.8 9.85714C1569.51 9.85714 1578.89 20.6825 1595.6 20.6825C1612.31 20.6825 1621.69 9.85714 1638.4 9.85714C1655.11 9.85714 1664.49 20.6825 1681.2 20.6825C1697.91 20.6825 1707.29 9.85714 1724 9.85714C1740.71 9.85714 1750.09 20.6825 1766.8 20.6825C1783.51 20.6825 1792.89 9.85714 1809.6 9.85714C1826.31 9.85714 1835.69 20.6825 1852.4 20.6825C1869.11 20.6825 1878.49 9.85714 1895.2 9.85714C1911.91 9.85714 1921.29 20.6825 1938 20.6825M-202 28.5556C-185.286 28.5556 -175.914 17.7302 -159.2 17.7302C-142.486 17.7302 -133.114 28.5556 -116.4 28.5556C-99.6856 28.5556 -90.3144 17.7302 -73.6 17.7302C-56.8856 17.7302 -47.5144 28.5556 -30.8 28.5556C-14.0856 28.5556 -4.71444 17.7302 12 17.7302C28.7144 17.7302 38.0856 28.5556 54.8 28.5556C71.5144 28.5556 80.8856 17.7302 97.6 17.7302C114.314 17.7302 123.686 28.5556 140.4 28.5556C157.114 28.5556 166.486 17.7302 183.2 17.7302C199.914 17.7302 209.286 28.5556 226 28.5556C242.714 28.5556 252.086 17.7302 268.8 17.7302C285.514 17.7302 294.886 28.5556 311.6 28.5556C328.314 28.5556 337.686 17.7302 354.4 17.7302C371.114 17.7302 380.486 28.5556 397.2 28.5556C413.914 28.5556 423.286 17.7302 440 17.7302C456.714 17.7302 466.086 28.5556 482.8 28.5556C499.514 28.5556 508.886 17.7302 525.6 17.7302C542.314 17.7302 551.686 28.5556 568.4 28.5556C585.114 28.5556 594.486 17.7302 611.2 17.7302C627.914 17.7302 637.286 28.5556 654 28.5556C670.714 28.5556 680.086 17.7302 696.8 17.7302C713.514 17.7302 722.886 28.5556 739.6 28.5556C756.314 28.5556 765.686 17.7302 782.4 17.7302C799.114 17.7302 808.485 28.5556 825.2 28.5556C841.914 28.5556 851.286 17.7302 868 17.7302C884.714 17.7302 894.086 28.5556 910.8 28.5556C927.514 28.5556 936.886 17.7302 953.6 17.7302C970.314 17.7302 979.686 28.5556 996.4 28.5556C1013.11 28.5556 1022.49 17.7302 1039.2 17.7302C1055.91 17.7302 1065.29 28.5556 1082 28.5556C1098.71 28.5556 1108.09 17.7302 1124.8 17.7302C1141.51 17.7302 1150.89 28.5556 1167.6 28.5556C1184.31 28.5556 1193.69 17.7302 1210.4 17.7302C1227.11 17.7302 1236.49 28.5556 1253.2 28.5556C1269.91 28.5556 1279.29 17.7302 1296 17.7302C1312.71 17.7302 1322.09 28.5556 1338.8 28.5556C1355.51 28.5556 1364.89 17.7302 1381.6 17.7302C1398.31 17.7302 1407.69 28.5556 1424.4 28.5556C1441.11 28.5556 1450.49 17.7302 1467.2 17.7302C1483.91 17.7302 1493.29 28.5556 1510 28.5556C1526.71 28.5556 1536.09 17.7302 1552.8 17.7302C1569.51 17.7302 1578.89 28.5556 1595.6 28.5556C1612.31 28.5556 1621.69 17.7302 1638.4 17.7302C1655.11 17.7302 1664.49 28.5556 1681.2 28.5556C1697.91 28.5556 1707.29 17.7302 1724 17.7302C1740.71 17.7302 1750.09 28.5556 1766.8 28.5556C1783.51 28.5556 1792.89 17.7302 1809.6 17.7302C1826.31 17.7302 1835.69 28.5556 1852.4 28.5556C1869.11 28.5556 1878.49 17.7302 1895.2 17.7302C1911.91 17.7302 1921.29 28.5556 1938 28.5556M-202 37.4127C-185.286 37.4127 -175.914 26.5873 -159.2 26.5873C-142.486 26.5873 -133.114 37.4127 -116.4 37.4127C-99.6856 37.4127 -90.3144 26.5873 -73.6 26.5873C-56.8856 26.5873 -47.5144 37.4127 -30.8 37.4127C-14.0856 37.4127 -4.71444 26.5873 12 26.5873C28.7144 26.5873 38.0856 37.4127 54.8 37.4127C71.5144 37.4127 80.8856 26.5873 97.6 26.5873C114.314 26.5873 123.686 37.4127 140.4 37.4127C157.114 37.4127 166.486 26.5873 183.2 26.5873C199.914 26.5873 209.286 37.4127 226 37.4127C242.714 37.4127 252.086 26.5873 268.8 26.5873C285.514 26.5873 294.886 37.4127 311.6 37.4127C328.314 37.4127 337.686 26.5873 354.4 26.5873C371.114 26.5873 380.486 37.4127 397.2 37.4127C413.914 37.4127 423.286 26.5873 440 26.5873C456.714 26.5873 466.086 37.4127 482.8 37.4127C499.514 37.4127 508.886 26.5873 525.6 26.5873C542.314 26.5873 551.686 37.4127 568.4 37.4127C585.114 37.4127 594.486 26.5873 611.2 26.5873C627.914 26.5873 637.286 37.4127 654 37.4127C670.714 37.4127 680.086 26.5873 696.8 26.5873C713.514 26.5873 722.886 37.4127 739.6 37.4127C756.314 37.4127 765.686 26.5873 782.4 26.5873C799.114 26.5873 808.485 37.4127 825.2 37.4127C841.914 37.4127 851.286 26.5873 868 26.5873C884.714 26.5873 894.086 37.4127 910.8 37.4127C927.514 37.4127 936.886 26.5873 953.6 26.5873C970.314 26.5873 979.686 37.4127 996.4 37.4127C1013.11 37.4127 1022.49 26.5873 1039.2 26.5873C1055.91 26.5873 1065.29 37.4127 1082 37.4127C1098.71 37.4127 1108.09 26.5873 1124.8 26.5873C1141.51 26.5873 1150.89 37.4127 1167.6 37.4127C1184.31 37.4127 1193.69 26.5873 1210.4 26.5873C1227.11 26.5873 1236.49 37.4127 1253.2 37.4127C1269.91 37.4127 1279.29 26.5873 1296 26.5873C1312.71 26.5873 1322.09 37.4127 1338.8 37.4127C1355.51 37.4127 1364.89 26.5873 1381.6 26.5873C1398.31 26.5873 1407.69 37.4127 1424.4 37.4127C1441.11 37.4127 1450.49 26.5873 1467.2 26.5873C1483.91 26.5873 1493.29 37.4127 1510 37.4127C1526.71 37.4127 1536.09 26.5873 1552.8 26.5873C1569.51 26.5873 1578.89 37.4127 1595.6 37.4127C1612.31 37.4127 1621.69 26.5873 1638.4 26.5873C1655.11 26.5873 1664.49 37.4127 1681.2 37.4127C1697.91 37.4127 1707.29 26.5873 1724 26.5873C1740.71 26.5873 1750.09 37.4127 1766.8 37.4127C1783.51 37.4127 1792.89 26.5873 1809.6 26.5873C1826.31 26.5873 1835.69 37.4127 1852.4 37.4127C1869.11 37.4127 1878.49 26.5873 1895.2 26.5873C1911.91 26.5873 1921.29 37.4127 1938 37.4127M-202 46.2698C-185.286 46.2698 -175.914 35.4444 -159.2 35.4444C-142.486 35.4444 -133.114 46.2698 -116.4 46.2698C-99.6856 46.2698 -90.3144 35.4444 -73.6 35.4444C-56.8856 35.4444 -47.5144 46.2698 -30.8 46.2698C-14.0856 46.2698 -4.71444 35.4444 12 35.4444C28.7144 35.4444 38.0856 46.2698 54.8 46.2698C71.5144 46.2698 80.8856 35.4444 97.6 35.4444C114.314 35.4444 123.686 46.2698 140.4 46.2698C157.114 46.2698 166.486 35.4444 183.2 35.4444C199.914 35.4444 209.286 46.2698 226 46.2698C242.714 46.2698 252.086 35.4444 268.8 35.4444C285.514 35.4444 294.886 46.2698 311.6 46.2698C328.314 46.2698 337.686 35.4444 354.4 35.4444C371.114 35.4444 380.486 46.2698 397.2 46.2698C413.914 46.2698 423.286 35.4444 440 35.4444C456.714 35.4444 466.086 46.2698 482.8 46.2698C499.514 46.2698 508.886 35.4444 525.6 35.4444C542.314 35.4444 551.686 46.2698 568.4 46.2698C585.114 46.2698 594.486 35.4444 611.2 35.4444C627.914 35.4444 637.286 46.2698 654 46.2698C670.714 46.2698 680.086 35.4444 696.8 35.4444C713.514 35.4444 722.886 46.2698 739.6 46.2698C756.314 46.2698 765.686 35.4444 782.4 35.4444C799.114 35.4444 808.485 46.2698 825.2 46.2698C841.914 46.2698 851.286 35.4444 868 35.4444C884.714 35.4444 894.086 46.2698 910.8 46.2698C927.514 46.2698 936.886 35.4444 953.6 35.4444C970.314 35.4444 979.686 46.2698 996.4 46.2698C1013.11 46.2698 1022.49 35.4444 1039.2 35.4444C1055.91 35.4444 1065.29 46.2698 1082 46.2698C1098.71 46.2698 1108.09 35.4444 1124.8 35.4444C1141.51 35.4444 1150.89 46.2698 1167.6 46.2698C1184.31 46.2698 1193.69 35.4444 1210.4 35.4444C1227.11 35.4444 1236.49 46.2698 1253.2 46.2698C1269.91 46.2698 1279.29 35.4444 1296 35.4444C1312.71 35.4444 1322.09 46.2698 1338.8 46.2698C1355.51 46.2698 1364.89 35.4444 1381.6 35.4444C1398.31 35.4444 1407.69 46.2698 1424.4 46.2698C1441.11 46.2698 1450.49 35.4444 1467.2 35.4444C1483.91 35.4444 1493.29 46.2698 1510 46.2698C1526.71 46.2698 1536.09 35.4444 1552.8 35.4444C1569.51 35.4444 1578.89 46.2698 1595.6 46.2698C1612.31 46.2698 1621.69 35.4444 1638.4 35.4444C1655.11 35.4444 1664.49 46.2698 1681.2 46.2698C1697.91 46.2698 1707.29 35.4444 1724 35.4444C1740.71 35.4444 1750.09 46.2698 1766.8 46.2698C1783.51 46.2698 1792.89 35.4444 1809.6 35.4444C1826.31 35.4444 1835.69 46.2698 1852.4 46.2698C1869.11 46.2698 1878.49 35.4444 1895.2 35.4444C1911.91 35.4444 1921.29 46.2698 1938 46.2698M-202 54.1429C-185.286 54.1429 -175.914 44.3016 -159.2 44.3016C-142.486 44.3016 -133.114 54.1429 -116.4 54.1429C-99.6856 54.1429 -90.3144 44.3016 -73.6 44.3016C-56.8856 44.3016 -47.5144 54.1429 -30.8 54.1429C-14.0856 54.1429 -4.71444 44.3016 12 44.3016C28.7144 44.3016 38.0856 54.1429 54.8 54.1429C71.5144 54.1429 80.8856 44.3016 97.6 44.3016C114.314 44.3016 123.686 54.1429 140.4 54.1429C157.114 54.1429 166.486 44.3016 183.2 44.3016C199.914 44.3016 209.286 54.1429 226 54.1429C242.714 54.1429 252.086 44.3016 268.8 44.3016C285.514 44.3016 294.886 54.1429 311.6 54.1429C328.314 54.1429 337.686 44.3016 354.4 44.3016C371.114 44.3016 380.486 54.1429 397.2 54.1429C413.914 54.1429 423.286 44.3016 440 44.3016C456.714 44.3016 466.086 54.1429 482.8 54.1429C499.514 54.1429 508.886 44.3016 525.6 44.3016C542.314 44.3016 551.686 54.1429 568.4 54.1429C585.114 54.1429 594.486 44.3016 611.2 44.3016C627.914 44.3016 637.286 54.1429 654 54.1429C670.714 54.1429 680.086 44.3016 696.8 44.3016C713.514 44.3016 722.886 54.1429 739.6 54.1429C756.314 54.1429 765.686 44.3016 782.4 44.3016C799.114 44.3016 808.485 54.1429 825.2 54.1429C841.914 54.1429 851.286 44.3016 868 44.3016C884.714 44.3016 894.086 54.1429 910.8 54.1429C927.514 54.1429 936.886 44.3016 953.6 44.3016C970.314 44.3016 979.686 54.1429 996.4 54.1429C1013.11 54.1429 1022.49 44.3016 1039.2 44.3016C1055.91 44.3016 1065.29 54.1429 1082 54.1429C1098.71 54.1429 1108.09 44.3016 1124.8 44.3016C1141.51 44.3016 1150.89 54.1429 1167.6 54.1429C1184.31 54.1429 1193.69 44.3016 1210.4 44.3016C1227.11 44.3016 1236.49 54.1429 1253.2 54.1429C1269.91 54.1429 1279.29 44.3016 1296 44.3016C1312.71 44.3016 1322.09 54.1429 1338.8 54.1429C1355.51 54.1429 1364.89 44.3016 1381.6 44.3016C1398.31 44.3016 1407.69 54.1429 1424.4 54.1429C1441.11 54.1429 1450.49 44.3016 1467.2 44.3016C1483.91 44.3016 1493.29 54.1429 1510 54.1429C1526.71 54.1429 1536.09 44.3016 1552.8 44.3016C1569.51 44.3016 1578.89 54.1429 1595.6 54.1429C1612.31 54.1429 1621.69 44.3016 1638.4 44.3016C1655.11 44.3016 1664.49 54.1429 1681.2 54.1429C1697.91 54.1429 1707.29 44.3016 1724 44.3016C1740.71 44.3016 1750.09 54.1429 1766.8 54.1429C1783.51 54.1429 1792.89 44.3016 1809.6 44.3016C1826.31 44.3016 1835.69 54.1429 1852.4 54.1429C1869.11 54.1429 1878.49 44.3016 1895.2 44.3016C1911.91 44.3016 1921.29 54.1429 1938 54.1429M-202 63C-185.286 63 -175.914 52.1746 -159.2 52.1746C-142.486 52.1746 -133.114 63 -116.4 63C-99.6856 63 -90.3144 52.1746 -73.6 52.1746C-56.8856 52.1746 -47.5144 63 -30.8 63C-14.0856 63 -4.71444 52.1746 12 52.1746C28.7144 52.1746 38.0856 63 54.8 63C71.5144 63 80.8856 52.1746 97.6 52.1746C114.314 52.1746 123.686 63 140.4 63C157.114 63 166.486 52.1746 183.2 52.1746C199.914 52.1746 209.286 63 226 63C242.714 63 252.086 52.1746 268.8 52.1746C285.514 52.1746 294.886 63 311.6 63C328.314 63 337.686 52.1746 354.4 52.1746C371.114 52.1746 380.486 63 397.2 63C413.914 63 423.286 52.1746 440 52.1746C456.714 52.1746 466.086 63 482.8 63C499.514 63 508.886 52.1746 525.6 52.1746C542.314 52.1746 551.686 63 568.4 63C585.114 63 594.486 52.1746 611.2 52.1746C627.914 52.1746 637.286 63 654 63C670.714 63 680.086 52.1746 696.8 52.1746C713.514 52.1746 722.886 63 739.6 63C756.314 63 765.686 52.1746 782.4 52.1746C799.114 52.1746 808.485 63 825.2 63C841.914 63 851.286 52.1746 868 52.1746C884.714 52.1746 894.086 63 910.8 63C927.514 63 936.886 52.1746 953.6 52.1746C970.314 52.1746 979.686 63 996.4 63C1013.11 63 1022.49 52.1746 1039.2 52.1746C1055.91 52.1746 1065.29 63 1082 63C1098.71 63 1108.09 52.1746 1124.8 52.1746C1141.51 52.1746 1150.89 63 1167.6 63C1184.31 63 1193.69 52.1746 1210.4 52.1746C1227.11 52.1746 1236.49 63 1253.2 63C1269.91 63 1279.29 52.1746 1296 52.1746C1312.71 52.1746 1322.09 63 1338.8 63C1355.51 63 1364.89 52.1746 1381.6 52.1746C1398.31 52.1746 1407.69 63 1424.4 63C1441.11 63 1450.49 52.1746 1467.2 52.1746C1483.91 52.1746 1493.29 63 1510 63C1526.71 63 1536.09 52.1746 1552.8 52.1746C1569.51 52.1746 1578.89 63 1595.6 63C1612.31 63 1621.69 52.1746 1638.4 52.1746C1655.11 52.1746 1664.49 63 1681.2 63C1697.91 63 1707.29 52.1746 1724 52.1746C1740.71 52.1746 1750.09 63 1766.8 63C1783.51 63 1792.89 52.1746 1809.6 52.1746C1826.31 52.1746 1835.69 63 1852.4 63C1869.11 63 1878.49 52.1746 1895.2 52.1746C1911.91 52.1746 1921.29 63 1938 63" stroke="#626262" stroke-width="2"/>
</svg>
