<svg width="44" height="44" viewBox="0 0 44 44" fill="none" xmlns="http://www.w3.org/2000/svg">
<path fill-rule="evenodd" clip-rule="evenodd" d="M21.5 7.5814C15.5469 7.5814 11.3438 12.3019 11.3438 18.1118C11.3438 20.7551 12.3313 22.538 13.5703 24.2383C13.8391 24.6083 14.1125 24.9645 14.3938 25.3311L14.5437 25.5238C14.8719 25.954 15.2109 26.398 15.5281 26.8558C16.1594 27.7696 16.7516 28.797 17.0828 30.012C17.1639 30.3369 17.1265 30.6839 16.9784 30.9788C16.8304 31.2737 16.5835 31.4931 16.2905 31.5902C15.9975 31.6873 15.6816 31.6543 15.4104 31.4983C15.1392 31.3424 14.9342 31.0757 14.8391 30.7554C14.6234 29.9638 14.2188 29.2238 13.6625 28.4201C13.3688 28.0022 13.0655 27.5925 12.7531 27.1914L12.6094 27.0021C12.3281 26.6373 12.0313 26.2518 11.7422 25.8542C10.3594 23.9578 9 21.6087 9 18.11C9 10.7875 14.3359 5 21.5 5C28.6641 5 34 10.7858 34 18.1118C34 21.6087 32.6406 23.9578 31.2578 25.856C30.9688 26.2518 30.6719 26.6373 30.3906 27.0038L30.2469 27.1914C29.9187 27.6182 29.6141 28.0192 29.3375 28.4201C28.7813 29.2238 28.3766 29.9655 28.1609 30.7554C28.0714 31.0834 27.8673 31.3587 27.5935 31.5209C27.3196 31.6831 26.9985 31.7188 26.7008 31.6202C26.403 31.5216 26.153 31.2968 26.0058 30.9952C25.8585 30.6936 25.8261 30.3399 25.9156 30.012C26.2484 28.797 26.8406 27.7696 27.4734 26.8558C27.7891 26.398 28.1281 25.954 28.4578 25.5238L28.6063 25.3311C28.8875 24.9645 29.1609 24.6083 29.4297 24.24C30.6688 22.5363 31.6562 20.7551 31.6562 18.1118C31.6562 12.3019 27.4531 7.5814 21.5 7.5814ZM17.5938 40.7093C17.5938 40.367 17.7172 40.0387 17.937 39.7966C18.1568 39.5546 18.4548 39.4186 18.7656 39.4186H24.2344C24.5452 39.4186 24.8432 39.5546 25.063 39.7966C25.2828 40.0387 25.4062 40.367 25.4062 40.7093C25.4062 41.0516 25.2828 41.3799 25.063 41.622C24.8432 41.864 24.5452 42 24.2344 42H18.7656C18.4548 42 18.1568 41.864 17.937 41.622C17.7172 41.3799 17.5938 41.0516 17.5938 40.7093ZM16.4219 34.2558C16.1111 34.2558 15.813 34.3918 15.5932 34.6339C15.3735 34.8759 15.25 35.2042 15.25 35.5465C15.25 35.8888 15.3735 36.2171 15.5932 36.4592C15.813 36.7012 16.1111 36.8372 16.4219 36.8372H26.5781C26.8889 36.8372 27.187 36.7012 27.4068 36.4592C27.6265 36.2171 27.75 35.8888 27.75 35.5465C27.75 35.2042 27.6265 34.8759 27.4068 34.6339C27.187 34.3918 26.8889 34.2558 26.5781 34.2558H16.4219Z" fill="#0883D1"/>
<path d="M13.6001 3.79999L11.8001 1.39999M29.4001 3.79999L31.2001 1.39999M6.65842 10.4472L4.44727 9.34163M36.3417 10.4472L38.5528 9.34163M6.2156 20.1767L3.17676 20.7845M36.7845 20.1767L39.8234 20.7845" stroke="#0883D1" stroke-width="2" stroke-linecap="round"/>
</svg>
