<svg width="145" height="145" viewBox="0 0 145 145" fill="none" xmlns="http://www.w3.org/2000/svg">
<path d="M120.248 16.2445L112.896 7.29532L105.544 16.2445L98.1922 7.29532L90.8403 16.2445L83.4883 7.29532L76.1364 16.2445L68.7844 7.29532L61.4324 16.2445L54.0805 7.29532L46.7285 16.2445L39.3766 7.29532L32.0246 16.2445L24.3328 6.8875H23.5739L23.6985 138.339L113.281 138.475C132.177 138.475 128.393 99.0418 128.393 99.0418L128.416 6.87617H127.985L120.248 16.2445Z" fill="white"/>
<path d="M74.3125 44.4402C79.3176 44.4402 83.375 40.3828 83.375 35.3777C83.375 30.3727 79.3176 26.3152 74.3125 26.3152C69.3074 26.3152 65.25 30.3727 65.25 35.3777C65.25 40.3828 69.3074 44.4402 74.3125 44.4402Z" fill="#94D1E0"/>
<path d="M36.7145 83.7148H72.0129M36.7145 53.9445H80.3051H36.7145ZM100.186 53.9445H113.429H100.186ZM100.186 68.8297H113.429H100.186ZM67.1985 68.8297H79.1723H67.1985ZM36.7145 68.8297H56.6746H36.7145ZM93.0266 110.948H113.429H93.0266ZM100.186 83.7148H113.429H100.186Z" stroke="#82AEC0" stroke-width="4" stroke-miterlimit="10" stroke-linecap="round"/>
<path d="M37.1676 98.6H37.6207" stroke="#82AEC0" stroke-width="4" stroke-miterlimit="10" stroke-linecap="round"/>
<path d="M46.1282 98.6H107.379" stroke="#82AEC0" stroke-width="4" stroke-miterlimit="10" stroke-linecap="round" stroke-dasharray="0.75 7.51"/>
<path d="M111.639 98.6H112.092" stroke="#82AEC0" stroke-width="4" stroke-miterlimit="10" stroke-linecap="round"/>
<path d="M130.409 3.44376H130.126C130.036 3.44376 128.438 3.47774 125.935 6.16251L120.259 13.0727L112.896 4.12344L105.544 13.0727L98.1809 4.12344L90.829 13.0727L83.4657 4.12344L76.1137 13.0727L68.7618 4.12344L61.4098 13.0727L54.0579 4.12344L46.7059 13.0727L39.354 4.12344L32.002 13.0613L28.1731 8.14493C24.2762 3.46641 21.8407 3.90821 21.7387 3.91954L21.5122 3.96485L21.6254 120.735L15.5196 127.385L8.99458 119.557C8.99458 119.557 5.05239 125.255 10.1387 132.958C14.2055 139.132 27.1875 138.498 32.4891 138.498L109.486 138.566C122.57 138.486 126.139 135.722 128.676 123.998C130.421 115.921 130.409 104.015 130.409 99.5289V3.44376ZM80.0786 119.568L72.9079 127.396L65.7372 119.568L58.5665 127.396L51.3958 119.568L44.225 127.396L37.0543 119.568L29.8836 127.396L25.7036 122.831L25.6016 11.6227L32.0133 19.4164L39.3653 10.4672L46.7172 19.4164L54.0692 10.4672L61.4211 19.4164L68.7731 10.4672L76.125 19.4164L83.477 10.4672L90.8403 19.4164L98.1922 10.4672L105.556 19.4164L112.907 10.4672L120.271 19.4164L126.354 12.0078L126.331 98.9625V99.982C126.343 104.717 126.388 115.819 124.689 123.137C122.944 130.715 120.191 133.774 114.55 134.431C112.873 134.623 104.072 134.839 95.9153 119.591C95.7793 119.33 95.5641 119.387 95.5188 119.398C95.5075 119.398 95.4961 119.41 95.4848 119.41C95.4055 119.07 95.3602 118.866 95.3602 118.866L87.2606 127.385L80.0786 119.568Z" fill="#6FBFF0"/>
</svg>
