<svg width="297" height="54" viewBox="0 0 297 54" fill="none" xmlns="http://www.w3.org/2000/svg">
<path fill-rule="evenodd" clip-rule="evenodd" d="M3.26807 12.8736C6.71867 11.0322 10.2125 9.35282 15.3371 9.28262C17.8319 9.25022 21.2933 9.74162 24.9329 11.2644C27.1361 12.1932 29.1233 13.7106 31.2347 14.7204C33.6539 15.8814 36.1541 16.4862 37.9037 16.524C43.6817 16.6428 44.9291 15.0174 49.1519 13.365C50.5667 12.8142 52.1597 12.4416 53.0723 14.0724C53.9795 15.7032 52.8671 17.2962 51.5495 17.8308C48.8495 18.9162 43.5953 21.7458 37.7471 21.8538C35.7545 21.8916 33.2921 21.33 30.7703 20.2176C28.0217 19.0026 25.2083 17.2584 22.3139 16.0596C20.0567 15.1254 17.4809 14.4558 15.3425 14.4558C11.1575 14.4558 9.00827 15.7572 5.33627 17.7768C3.94847 18.5382 2.25827 18.9702 1.09187 17.3934C-0.0799291 15.8166 1.23767 13.959 3.26807 12.8736Z" fill="#00CCFF"/>
<path fill-rule="evenodd" clip-rule="evenodd" d="M3.21296 24.4134C6.66896 22.572 10.1628 20.8926 15.2874 20.8224C17.7768 20.7846 21.2382 21.2814 24.8778 22.8042C27.0864 23.7276 29.0682 25.245 31.185 26.2602C33.5988 27.4212 36.1044 28.026 37.854 28.0638C43.632 28.1826 44.8794 26.5572 49.1022 24.9048C50.5116 24.354 52.11 23.9814 53.0172 25.6122C53.9298 27.243 52.8174 28.836 51.4944 29.3652C48.7944 30.456 43.5456 33.2856 37.692 33.3936C35.6994 33.4314 33.2424 32.8698 30.7152 31.7574C27.972 30.5424 25.1586 28.7982 22.2642 27.5994C20.0016 26.6652 17.4312 25.9956 15.2928 25.9956C11.1024 25.9956 8.95316 27.297 5.28116 29.3112C3.89336 30.0726 2.20856 30.51 1.03676 28.9332C-0.12964 27.3564 1.18796 25.4988 3.21296 24.4134Z" fill="#0783D1"/>
<path fill-rule="evenodd" clip-rule="evenodd" d="M3.21296 35.7373C6.66896 33.8905 10.1628 32.2165 15.2874 32.1463C17.7768 32.1085 21.2382 32.6053 24.8778 34.1281C27.0864 35.0515 29.0682 36.5689 31.185 37.5841C33.5988 38.7451 36.1044 39.3499 37.854 39.3823C43.632 39.5011 44.8794 37.8757 49.1022 36.2233C50.5116 35.6725 52.11 35.2999 53.0172 36.9361C53.9298 38.5669 52.8174 40.1545 51.4944 40.6891C48.7944 41.7799 43.5456 44.6095 37.692 44.7175C35.6994 44.7553 33.2424 44.1937 30.7152 43.0759C27.972 41.8609 25.1586 40.1221 22.2642 38.9233C20.0016 37.9837 17.4312 37.3141 15.2928 37.3141C11.1024 37.3141 8.95316 38.6209 5.28116 40.6351C3.89336 41.3965 2.20856 41.8285 1.03676 40.2517C-0.12964 38.6803 1.18796 36.8173 3.21296 35.7373Z" fill="#005CB8"/>
<path d="M80.4326 25.632C81.6371 26.1648 82.5884 26.9712 83.2862 28.0464C83.9889 29.1264 84.3378 30.3552 84.3378 31.7328C84.3378 33.0912 84.0128 34.2816 83.3627 35.3136C82.7079 36.3408 81.7997 37.1424 80.6286 37.7088C79.4622 38.28 78.1286 38.5632 76.6325 38.5632H66.1404V13.8624H75.9442C77.3686 13.8624 78.6401 14.136 79.7634 14.6784C80.8819 15.2256 81.7614 15.9888 82.4019 16.968C83.0425 17.9472 83.3627 19.0704 83.3627 20.328C83.3627 21.4656 83.0998 22.488 82.5836 23.4C82.0626 24.3072 81.3456 25.0512 80.4326 25.632ZM70.3755 24.1056H75.2941C76.4986 24.1056 77.426 23.8032 78.0808 23.1984C78.7309 22.5936 79.0559 21.744 79.0559 20.6544C79.0559 19.6368 78.707 18.84 78.0043 18.2592C77.3065 17.6784 76.3791 17.3856 75.2224 17.3856H70.3755V24.1056ZM75.9442 35.04C77.1726 35.04 78.1621 34.6992 78.9125 34.0224C79.6582 33.3456 80.0311 32.4384 80.0311 31.296C80.0311 30.1824 79.6726 29.2896 78.946 28.608C78.2242 27.9312 77.273 27.5952 76.0876 27.5952H70.3755V35.04H75.9442Z" fill="black"/>
<path d="M100.432 39.0336C97.9752 39.0336 95.7716 38.472 93.8309 37.344C91.8902 36.2208 90.3702 34.6752 89.2756 32.7168C88.1762 30.7536 87.6265 28.5744 87.6265 26.1744C87.6265 23.7312 88.1714 21.5376 89.2564 19.6032C90.3415 17.664 91.8568 16.1424 93.7974 15.0432C95.7381 13.9392 97.9513 13.3872 100.432 13.3872C102.918 13.3872 105.131 13.9392 107.072 15.0432C109.012 16.1424 110.527 17.664 111.613 19.6032C112.698 21.5376 113.238 23.7312 113.238 26.1744C113.238 28.5744 112.698 30.7536 111.613 32.7168C110.527 34.6752 109.012 36.2208 107.072 37.344C105.131 38.472 102.918 39.0336 100.432 39.0336ZM100.432 35.1504C102.124 35.1504 103.606 34.7472 104.882 33.9504C106.163 33.1488 107.148 32.0736 107.851 30.7152C108.549 29.3616 108.897 27.8448 108.897 26.1744C108.897 24.48 108.549 22.9536 107.851 21.6C107.148 20.2416 106.163 19.1856 104.882 18.4224C103.606 17.6592 102.124 17.2752 100.432 17.2752C98.7447 17.2752 97.2677 17.6592 96.001 18.4224C94.7391 19.1856 93.7544 20.2416 93.0565 21.6C92.3539 22.9536 92.0049 24.48 92.0049 26.1744C92.0049 27.8448 92.3539 29.3616 93.0565 30.7152C93.7544 32.0736 94.7439 33.1488 96.0201 33.9504C97.3012 34.7472 98.7686 35.1504 100.432 35.1504Z" fill="black"/>
<path d="M138.849 34.6032V44.0832H134.8V38.5632H118.123V44.0832H114.108V34.6032H116.966C117.616 33.3216 118.128 32.0064 118.5 30.6624C118.878 29.3184 119.146 27.7968 119.318 26.1024L120.585 13.8624H135.847V34.6032H138.849ZM123.438 26.904C123.128 29.688 122.477 32.256 121.488 34.6032H131.65V17.8224H124.418L123.438 26.904Z" fill="black"/>
<path d="M153.571 39.0336C151.114 39.0336 148.911 38.472 146.97 37.344C145.029 36.2208 143.509 34.6752 142.415 32.7168C141.315 30.7536 140.766 28.5744 140.766 26.1744C140.766 23.7312 141.311 21.5376 142.396 19.6032C143.481 17.664 144.996 16.1424 146.937 15.0432C148.877 13.9392 151.09 13.3872 153.571 13.3872C156.057 13.3872 158.27 13.9392 160.211 15.0432C162.151 16.1424 163.667 17.664 164.752 19.6032C165.837 21.5376 166.377 23.7312 166.377 26.1744C166.377 28.5744 165.837 30.7536 164.752 32.7168C163.667 34.6752 162.151 36.2208 160.211 37.344C158.27 38.472 156.057 39.0336 153.571 39.0336ZM153.571 35.1504C155.263 35.1504 156.745 34.7472 158.021 33.9504C159.302 33.1488 160.287 32.0736 160.99 30.7152C161.688 29.3616 162.037 27.8448 162.037 26.1744C162.037 24.48 161.688 22.9536 160.99 21.6C160.287 20.2416 159.302 19.1856 158.021 18.4224C156.745 17.6592 155.263 17.2752 153.571 17.2752C151.884 17.2752 150.407 17.6592 149.14 18.4224C147.878 19.1856 146.894 20.2416 146.196 21.6C145.493 22.9536 145.144 24.48 145.144 26.1744C145.144 27.8448 145.493 29.3616 146.196 30.7152C146.894 32.0736 147.883 33.1488 149.159 33.9504C150.436 34.7472 151.908 35.1504 153.571 35.1504Z" fill="black"/>
<path d="M189.746 38.4192V38.5632H184.718L175.316 27.5184V38.5632H171.047V13.8624H175.316V24.9408L184.139 13.8624H188.986V13.9728L179.292 26.1024L189.746 38.4192Z" fill="black"/>
<path d="M214.961 38.4528V38.5632H210.511L208.484 34.0944H196.945L194.957 38.5632H190.468V38.4912L202.084 13.7184H203.384L214.961 38.4528ZM202.734 20.6208C202.203 22.0704 201.649 23.4768 201.07 24.8304L198.393 30.7152H207.074L204.397 24.8304C203.723 23.3328 203.169 21.9264 202.734 20.6208Z" fill="black"/>
<path d="M218.144 13.8624H222.413V24.144H234.387V13.8624H238.655V38.5632H234.387V28.0992H222.413V38.5632H218.144V13.8624Z" fill="black"/>
<path d="M266.327 38.4528V38.5632H261.877L259.85 34.0944H248.311L246.323 38.5632H241.839V38.4912L253.449 13.7184H254.75L266.327 38.4528ZM254.1 20.6208C253.569 22.0704 253.014 23.4768 252.436 24.8304L249.759 30.7152H258.44L255.763 24.8304C255.089 23.3328 254.535 21.9264 254.1 20.6208Z" fill="black"/>
<path d="M267.703 35.256C268.908 35.16 269.864 34.8048 270.576 34.1856C271.288 33.5664 271.848 32.6112 272.259 31.3152C272.67 30.0192 273.005 28.224 273.272 25.92L274.611 13.8624H290.055V38.5632H285.786V17.8224H278.301L277.249 27.3024C276.938 30.0384 276.417 32.232 275.696 33.8784C274.974 35.5248 274.008 36.7392 272.804 37.5264C271.594 38.3136 270.089 38.7552 268.282 38.856L267.703 35.256Z" fill="black"/>
</svg>
