<svg width="44" height="31" viewBox="0 0 44 31" fill="none" xmlns="http://www.w3.org/2000/svg">
<path d="M0.0989801 1.11351C0.234702 0.775148 0.499246 0.504535 0.834445 0.361173C1.16964 0.217811 1.54806 0.213437 1.88648 0.349013L6.71823 2.28226C7.70154 2.67552 8.79842 2.67552 9.78173 2.28226L12.5702 1.16576C14.2093 0.510099 16.0379 0.510099 17.677 1.16576L20.4682 2.28226C21.4515 2.67552 22.5484 2.67552 23.5317 2.28226L26.3202 1.16576C27.9593 0.510099 29.7879 0.510099 31.427 1.16576L34.2182 2.28226C35.2015 2.67552 36.2984 2.67552 37.2817 2.28226L42.1135 0.349013C42.2819 0.277417 42.4628 0.240149 42.6458 0.239392C42.8288 0.238634 43.0101 0.274403 43.179 0.344602C43.348 0.414801 43.5013 0.518019 43.6298 0.648207C43.7584 0.778394 43.8597 0.932933 43.9278 1.10277C43.9959 1.2726 44.0294 1.45432 44.0263 1.63727C44.0233 1.82021 43.9837 2.00071 43.91 2.16819C43.8364 2.33566 43.73 2.48675 43.5971 2.61258C43.4643 2.73842 43.3077 2.83648 43.1365 2.90101L38.302 4.83426C36.6629 5.48993 34.8343 5.48993 33.1952 4.83426L30.4067 3.71776C29.4234 3.32451 28.3265 3.32451 27.3432 3.71776L24.552 4.83426C22.9129 5.48993 21.0843 5.48993 19.4452 4.83426L16.6567 3.71776C15.6734 3.32451 14.5765 3.32451 13.5932 3.71776L10.802 4.83426C9.16287 5.48993 7.33434 5.48993 5.69523 4.83426L0.86348 2.90101C0.525116 2.76529 0.254502 2.50075 0.11114 2.16555C-0.0322223 1.83035 -0.0365961 1.45194 0.0989801 1.11351ZM0.0989801 9.36351C0.234702 9.02515 0.499246 8.75453 0.834445 8.61117C1.16964 8.46781 1.54806 8.46344 1.88648 8.59901L6.71823 10.5323C7.70154 10.9255 8.79842 10.9255 9.78173 10.5323L12.5702 9.41576C14.2093 8.7601 16.0379 8.7601 17.677 9.41576L20.4682 10.5323C21.4515 10.9255 22.5484 10.9255 23.5317 10.5323L26.3202 9.41576C27.9593 8.7601 29.7879 8.7601 31.427 9.41576L34.2182 10.5323C35.2015 10.9255 36.2984 10.9255 37.2817 10.5323L42.1135 8.59901C42.2819 8.52742 42.4628 8.49015 42.6458 8.48939C42.8288 8.48864 43.0101 8.5244 43.179 8.5946C43.348 8.6648 43.5013 8.76802 43.6298 8.89821C43.7584 9.0284 43.8597 9.18293 43.9278 9.35277C43.9959 9.5226 44.0294 9.70432 44.0263 9.88727C44.0233 10.0702 43.9837 10.2507 43.91 10.4182C43.8364 10.5857 43.73 10.7367 43.5971 10.8626C43.4643 10.9884 43.3077 11.0865 43.1365 11.151L38.302 13.0843C36.6629 13.7399 34.8343 13.7399 33.1952 13.0843L30.4067 11.9678C29.4234 11.5745 28.3265 11.5745 27.3432 11.9678L24.552 13.0843C22.9129 13.7399 21.0843 13.7399 19.4452 13.0843L16.6567 11.9678C15.6734 11.5745 14.5765 11.5745 13.5932 11.9678L10.802 13.0843C9.16287 13.7399 7.33434 13.7399 5.69523 13.0843L0.86348 11.151C0.525116 11.0153 0.254502 10.7507 0.11114 10.4155C-0.0322223 10.0803 -0.0365961 9.70194 0.0989801 9.36351ZM0.0989801 17.6135C0.234702 17.2752 0.499246 17.0045 0.834445 16.8612C1.16964 16.7178 1.54806 16.7134 1.88648 16.849L6.71823 18.7823C7.70154 19.1755 8.79842 19.1755 9.78173 18.7823L12.5702 17.6658C14.2093 17.0101 16.0379 17.0101 17.677 17.6658L20.4682 18.7823C21.4515 19.1755 22.5484 19.1755 23.5317 18.7823L26.3202 17.6658C27.9593 17.0101 29.7879 17.0101 31.427 17.6658L34.2182 18.7823C35.2015 19.1755 36.2984 19.1755 37.2817 18.7823L42.1135 16.849C42.2819 16.7774 42.4628 16.7402 42.6458 16.7394C42.8288 16.7386 43.0101 16.7744 43.179 16.8446C43.348 16.9148 43.5013 17.018 43.6298 17.1482C43.7584 17.2784 43.8597 17.4329 43.9278 17.6028C43.9959 17.7726 44.0294 17.9543 44.0263 18.1373C44.0233 18.3202 43.9837 18.5007 43.91 18.6682C43.8364 18.8357 43.73 18.9867 43.5971 19.1126C43.4643 19.2384 43.3077 19.3365 43.1365 19.401L38.302 21.3343C36.6629 21.9899 34.8343 21.9899 33.1952 21.3343L30.4067 20.2178C29.4234 19.8245 28.3265 19.8245 27.3432 20.2178L24.552 21.3343C22.9129 21.9899 21.0843 21.9899 19.4452 21.3343L16.6567 20.2178C15.6734 19.8245 14.5765 19.8245 13.5932 20.2178L10.802 21.3343C9.16287 21.9899 7.33434 21.9899 5.69523 21.3343L0.86348 19.401C0.525116 19.2653 0.254502 19.0007 0.11114 18.6656C-0.0322223 18.3304 -0.0365961 17.9519 0.0989801 17.6135ZM0.0989801 25.8635C0.234702 25.5252 0.499246 25.2545 0.834445 25.1112C1.16964 24.9678 1.54806 24.9634 1.88648 25.099L6.71823 27.0323C7.70154 27.4255 8.79842 27.4255 9.78173 27.0323L12.5702 25.9158C14.2093 25.2601 16.0379 25.2601 17.677 25.9158L20.4682 27.0323C21.4515 27.4255 22.5484 27.4255 23.5317 27.0323L26.3202 25.9158C27.9593 25.2601 29.7879 25.2601 31.427 25.9158L34.2182 27.0323C35.2015 27.4255 36.2984 27.4255 37.2817 27.0323L42.1135 25.099C42.2819 25.0274 42.4628 24.9902 42.6458 24.9894C42.8288 24.9886 43.0101 25.0244 43.179 25.0946C43.348 25.1648 43.5013 25.268 43.6298 25.3982C43.7584 25.5284 43.8597 25.6829 43.9278 25.8528C43.9959 26.0226 44.0294 26.2043 44.0263 26.3873C44.0233 26.5702 43.9837 26.7507 43.91 26.9182C43.8364 27.0857 43.73 27.2367 43.5971 27.3626C43.4643 27.4884 43.3077 27.5865 43.1365 27.651L38.302 29.5843C36.6629 30.2399 34.8343 30.2399 33.1952 29.5843L30.4067 28.4678C29.4234 28.0745 28.3265 28.0745 27.3432 28.4678L24.552 29.5843C22.9129 30.2399 21.0843 30.2399 19.4452 29.5843L16.6567 28.4678C15.6734 28.0745 14.5765 28.0745 13.5932 28.4678L10.802 29.5843C9.16287 30.2399 7.33434 30.2399 5.69523 29.5843L0.86348 27.651C0.525116 27.5153 0.254502 27.2507 0.11114 26.9155C-0.0322223 26.5803 -0.0365961 26.2019 0.0989801 25.8635Z" fill="#0883D1"/>
</svg>
