<svg width="16" height="16" viewBox="0 0 16 16" fill="none" xmlns="http://www.w3.org/2000/svg">
<path d="M12 6.5H11C10.9996 6.1023 10.8414 5.721 10.5602 5.43978C10.279 5.15856 9.8977 5.0004 9.5 5V4C10.1628 4.00079 10.7982 4.26444 11.2669 4.73311C11.7356 5.20178 11.9992 5.8372 12 6.5V6.5Z" fill="white"/>
<path d="M14 6.5H13C12.9989 5.57207 12.6299 4.68244 11.9737 4.0263C11.3176 3.37015 10.4279 3.00106 9.5 3V2C10.6931 2.00132 11.8369 2.47585 12.6805 3.31948C13.5241 4.16311 13.9987 5.30693 14 6.5V6.5Z" fill="white"/>
<path d="M10.1665 10.741L11.2865 9.621C11.4364 9.47105 11.6271 9.36838 11.8348 9.32572C12.0425 9.28306 12.2581 9.30228 12.455 9.381L13.819 9.927C14.0201 10.0074 14.1924 10.1463 14.3138 10.3256C14.4351 10.5049 14.5 10.7165 14.5 10.933V13.4135C14.5004 13.5609 14.4706 13.7069 14.4126 13.8424C14.3546 13.978 14.2695 14.1002 14.1626 14.2018C14.0557 14.3033 13.9292 14.3819 13.7909 14.4329C13.6525 14.4838 13.5052 14.506 13.358 14.498C3.79701 13.903 1.86601 5.805 1.50751 2.704C1.49015 2.5524 1.50508 2.39884 1.55132 2.25342C1.59756 2.108 1.67406 1.97402 1.7758 1.86029C1.87753 1.74656 2.00219 1.65566 2.14158 1.59356C2.28096 1.53146 2.43192 1.49958 2.58451 1.5H5.02101C5.23754 1.5 5.44911 1.56487 5.62843 1.68625C5.80774 1.80764 5.94657 1.97996 6.02701 2.181L6.57251 3.545C6.65123 3.74189 6.67045 3.95755 6.62779 4.16526C6.58513 4.37296 6.48246 4.56359 6.33251 4.7135L5.21251 5.8335C5.21251 5.8335 5.83351 10.1995 10.1665 10.741Z" fill="white"/>
</svg>
