<svg width="44" height="44" viewBox="0 0 44 44" fill="none" xmlns="http://www.w3.org/2000/svg">
<path fill-rule="evenodd" clip-rule="evenodd" d="M29.0445 27.676C29.1941 27.8256 29.4009 27.9224 29.6341 27.9224C29.8629 27.9224 30.0697 27.8256 30.2193 27.676C30.3733 27.5264 30.4657 27.3196 30.4657 27.0864C30.4657 26.8576 30.3733 26.6508 30.2193 26.4968C30.0697 26.3472 29.8629 26.2548 29.6341 26.2548C29.4009 26.2548 29.1941 26.3472 29.0445 26.4968C28.8949 26.6508 28.7981 26.8576 28.7981 27.0864C28.7981 27.3196 28.8949 27.5264 29.0445 27.676ZM13.7809 27.676C13.9305 27.8256 14.1373 27.9224 14.3661 27.9224C14.5993 27.9224 14.8061 27.8256 14.9557 27.676C15.1053 27.5264 15.2021 27.3196 15.2021 27.0864C15.2021 26.8576 15.1053 26.6508 14.9557 26.4968C14.8061 26.3472 14.5993 26.2548 14.3661 26.2548C14.1373 26.2548 13.9305 26.3472 13.7809 26.4968C13.6269 26.6508 13.5345 26.8576 13.5345 27.0864C13.5345 27.3196 13.6269 27.5264 13.7809 27.676ZM37.0261 6.97401C33.1717 3.11961 27.8565 0.730408 22.0001 0.730408C16.1437 0.730408 10.8285 3.11961 6.97407 6.97401C3.11967 10.8284 0.730469 16.1436 0.730469 22C0.730469 27.8564 3.11967 33.1716 6.97407 37.026C10.8285 40.8804 16.1437 43.2696 22.0001 43.2696C27.8565 43.2696 33.1717 40.8804 37.0261 37.026C40.8805 33.1716 43.2697 27.8564 43.2697 22C43.2697 16.1436 40.8805 10.8284 37.0261 6.97401ZM35.8557 35.8556C32.3049 39.4064 27.4033 41.6064 22.0001 41.6064C16.5969 41.6064 11.6953 39.4064 8.14447 35.8556C4.59367 32.3048 2.39367 27.4032 2.39367 22C2.39367 16.5968 4.59367 11.6952 8.14447 8.14441C11.6953 4.59361 16.5969 2.39361 22.0001 2.39361C27.4033 2.39361 32.3049 4.59361 35.8557 8.14441C39.4065 11.6952 41.6065 16.5968 41.6065 22C41.6065 27.4032 39.4065 32.3048 35.8557 35.8556ZM33.3785 10.6216C30.4657 7.70881 26.4397 5.90481 22.0001 5.90481C17.5605 5.90481 13.5389 7.70881 10.6261 10.6216C7.70887 13.5388 5.90487 17.5648 5.90487 22C5.90487 24.2836 6.39327 26.5188 7.30847 28.5604C8.21927 30.6064 9.56127 32.4632 11.2685 33.99C11.4357 34.144 11.6557 34.21 11.8713 34.2012C12.0825 34.188 12.2937 34.0956 12.4477 33.924C12.5973 33.7524 12.6677 33.5368 12.6545 33.3212C12.6457 33.11 12.5489 32.8988 12.3817 32.7492C11.0221 31.5304 9.91767 30.074 9.11687 28.4768C8.30727 26.8664 7.79687 25.1108 7.62967 23.3024L7.58567 22.8228H9.27967C9.51287 22.8228 9.71967 22.7304 9.87367 22.5852C10.0189 22.4356 10.1113 22.2288 10.1113 22C10.1113 21.7712 10.0189 21.56 9.86927 21.4104C9.71967 21.2608 9.50847 21.1684 9.27967 21.1684H7.58567L7.62967 20.6888C7.76167 19.2104 8.12247 17.798 8.66367 16.4824C9.22687 15.1316 9.98807 13.882 10.9165 12.7688L11.2245 12.3992L12.4169 13.596C12.5797 13.7544 12.7909 13.838 13.0065 13.838C13.2177 13.838 13.4333 13.7544 13.5917 13.596C13.7545 13.4332 13.8381 13.2176 13.8381 13.0064C13.8381 12.7908 13.7545 12.5796 13.5961 12.4168L12.3993 11.2244L12.7689 10.9164C13.8821 9.98801 15.1317 9.22681 16.4825 8.66361C17.7981 8.11801 19.2105 7.76161 20.6889 7.62961L21.1685 7.58561V9.27961C21.1685 9.50841 21.2609 9.71961 21.4105 9.86921C21.5601 10.0188 21.7713 10.1112 22.0001 10.1112C22.2289 10.1112 22.4401 10.0188 22.5897 9.86921C22.7393 9.71961 22.8317 9.50841 22.8317 9.27961V7.58561L23.3113 7.62961C24.7897 7.76161 26.2021 8.11801 27.5177 8.66361C28.8685 9.22681 30.1181 9.98801 31.2313 10.9164L31.6009 11.2244L30.4041 12.4168C30.2457 12.5796 30.1621 12.7908 30.1621 13.0064C30.1621 13.2176 30.2457 13.4332 30.4041 13.5916C30.5669 13.7544 30.7825 13.838 30.9937 13.838C31.2093 13.838 31.4205 13.7544 31.5833 13.596L32.7757 12.3992L33.0837 12.7688C34.0121 13.882 34.7733 15.1316 35.3365 16.4824C35.8777 17.798 36.2385 19.2104 36.3705 20.6888L36.4145 21.1684H34.7205C34.4917 21.1684 34.2805 21.2608 34.1309 21.4104C33.9813 21.56 33.8889 21.7712 33.8889 22C33.8889 22.2288 33.9813 22.44 34.1309 22.5896C34.2805 22.7392 34.4917 22.8316 34.7205 22.8316H36.4145L36.3705 23.3112C36.2033 25.1196 35.6929 26.8752 34.8877 28.4768C34.0825 30.074 32.9781 31.526 31.6185 32.7492C31.4469 32.8988 31.3545 33.11 31.3457 33.3212C31.3325 33.5368 31.4029 33.7524 31.5525 33.924C31.7065 34.0956 31.9177 34.188 32.1289 34.2012C32.3445 34.21 32.5645 34.144 32.7317 33.99C34.4389 32.4632 35.7809 30.6064 36.6917 28.5604C37.6069 26.5188 38.0953 24.2836 38.0953 22C38.0953 17.5648 36.2913 13.5388 33.3785 10.6216ZM21.1685 14.366V18.7132L20.8737 18.8188C20.2093 19.052 19.6417 19.492 19.2413 20.0552C18.8541 20.6008 18.6253 21.274 18.6253 22C18.6253 22.9328 19.0037 23.7776 19.6109 24.3848C20.2225 24.9964 21.0673 25.3748 22.0001 25.3748C22.9329 25.3748 23.7777 24.9964 24.3849 24.3892C24.9965 23.7776 25.3749 22.9328 25.3749 22C25.3749 21.274 25.1461 20.6008 24.7589 20.0552C24.3585 19.492 23.7909 19.052 23.1265 18.8188L22.8317 18.7132V14.366C22.8317 14.1372 22.7393 13.9304 22.5897 13.7808C22.4401 13.6268 22.2289 13.5344 22.0001 13.5344C21.7713 13.5344 21.5601 13.6268 21.4105 13.7808C21.2609 13.9304 21.1685 14.1372 21.1685 14.366ZM23.2101 23.21C22.8977 23.518 22.4709 23.7116 22.0001 23.7116C21.5293 23.7116 21.1025 23.518 20.7901 23.21C20.4821 22.8976 20.2885 22.4708 20.2885 22C20.2885 21.5292 20.4821 21.1024 20.7901 20.79C21.1025 20.482 21.5293 20.2884 22.0001 20.2884C22.4709 20.2884 22.8977 20.482 23.2101 20.79C23.5181 21.1024 23.7117 21.5292 23.7117 22C23.7117 22.4708 23.5181 22.8976 23.2101 23.21ZM27.0865 28.798H16.9137C16.6805 28.798 16.4737 28.8948 16.3241 29.0444C16.1745 29.194 16.0777 29.4008 16.0777 29.634V34.7204C16.0777 34.9492 16.1745 35.1604 16.3241 35.31C16.4737 35.4596 16.6805 35.552 16.9137 35.552H27.0865C27.3197 35.552 27.5265 35.4596 27.6761 35.31C27.8257 35.1604 27.9225 34.9492 27.9225 34.7204V29.634C27.9225 29.4008 27.8257 29.194 27.6761 29.0444C27.5265 28.8948 27.3197 28.798 27.0865 28.798ZM25.8149 33.8888H17.7453V30.4656H26.2549V33.8888H25.8149Z" fill="#0883D1"/>
</svg>
