<svg width="242" height="44" viewBox="0 0 242 44" fill="none" xmlns="http://www.w3.org/2000/svg">
<path fill-rule="evenodd" clip-rule="evenodd" d="M2.66291 10.4896C5.47451 8.98919 8.32131 7.62079 12.4969 7.56359C14.5297 7.53719 17.3501 7.93759 20.3157 9.17839C22.1109 9.93519 23.7301 11.1716 25.4505 11.9944C27.4217 12.9404 29.4589 13.4332 30.8845 13.464C35.5925 13.5608 36.6089 12.2364 40.0497 10.89C41.2025 10.4412 42.5005 10.1376 43.2441 11.4664C43.9833 12.7952 43.0769 14.0932 42.0033 14.5288C39.8033 15.4132 35.5221 17.7188 30.7569 17.8068C29.1333 17.8376 27.1269 17.38 25.0721 16.4736C22.8325 15.4836 20.5401 14.0624 18.1817 13.0856C16.3425 12.3244 14.2437 11.7788 12.5013 11.7788C9.09131 11.7788 7.34011 12.8392 4.34811 14.4848C3.21731 15.1052 1.84011 15.4572 0.889713 14.1724C-0.0650868 12.8876 1.00851 11.374 2.66291 10.4896Z" fill="#00CCFF"/>
<path fill-rule="evenodd" clip-rule="evenodd" d="M2.61802 19.8924C5.43402 18.392 8.28082 17.0236 12.4564 16.9664C14.4848 16.9356 17.3052 17.3404 20.2708 18.5812C22.0704 19.3336 23.6852 20.57 25.41 21.3972C27.3768 22.3432 29.4184 22.836 30.844 22.8668C35.552 22.9636 36.5684 21.6392 40.0092 20.2928C41.1576 19.844 42.46 19.5404 43.1992 20.8692C43.9428 22.198 43.0364 23.496 41.9584 23.9272C39.7584 24.816 35.4816 27.1216 30.712 27.2096C29.0884 27.2404 27.0864 26.7828 25.0272 25.8764C22.792 24.8864 20.4996 23.4652 18.1412 22.4884C16.2976 21.7272 14.2032 21.1816 12.4608 21.1816C9.04642 21.1816 7.29522 22.242 4.30322 23.8832C3.17242 24.5036 1.79962 24.86 0.844821 23.5752C-0.105579 22.2904 0.968021 20.7768 2.61802 19.8924Z" fill="#0783D1"/>
<path fill-rule="evenodd" clip-rule="evenodd" d="M2.61802 29.1192C5.43402 27.6144 8.28082 26.2504 12.4564 26.1932C14.4848 26.1624 17.3052 26.5672 20.2708 27.808C22.0704 28.5604 23.6852 29.7968 25.41 30.624C27.3768 31.57 29.4184 32.0628 30.844 32.0892C35.552 32.186 36.5684 30.8616 40.0092 29.5152C41.1576 29.0664 42.46 28.7628 43.1992 30.096C43.9428 31.4248 43.0364 32.7184 41.9584 33.154C39.7584 34.0428 35.4816 36.3484 30.712 36.4364C29.0884 36.4672 27.0864 36.0096 25.0272 35.0988C22.792 34.1088 20.4996 32.692 18.1412 31.7152C16.2976 30.9496 14.2032 30.404 12.4608 30.404C9.04642 30.404 7.29522 31.4688 4.30322 33.11C3.17242 33.7304 1.79962 34.0824 0.844821 32.7976C-0.105579 31.5172 0.968021 29.9992 2.61802 29.1192Z" fill="#005CB8"/>
<path d="M65.5376 20.8853C66.5191 21.3195 67.2941 21.9765 67.8628 22.8526C68.4353 23.7326 68.7196 24.7339 68.7196 25.8564C68.7196 26.9632 68.4548 27.9332 67.9251 28.774C67.3915 29.611 66.6515 30.2642 65.6973 30.7257C64.7469 31.1911 63.6603 31.4219 62.4412 31.4219H53.8921V11.2953H61.8804C63.041 11.2953 64.077 11.5182 64.9923 11.9602C65.9037 12.406 66.6203 13.0279 67.1422 13.8258C67.6642 14.6236 67.9251 15.5388 67.9251 16.5636C67.9251 17.4905 67.7109 18.3236 67.2903 19.0667C66.8657 19.8059 66.2815 20.4121 65.5376 20.8853ZM57.3429 19.6416H61.3507C62.3322 19.6416 63.0877 19.3952 63.6213 18.9024C64.151 18.4096 64.4159 17.7173 64.4159 16.8295C64.4159 16.0004 64.1316 15.3511 63.559 14.8779C62.9904 14.4046 62.2348 14.166 61.2922 14.166H57.3429V19.6416ZM61.8804 28.5511C62.8813 28.5511 63.6875 28.2734 64.299 27.722C64.9066 27.1705 65.2104 26.4313 65.2104 25.5004C65.2104 24.5931 64.9183 23.8656 64.3263 23.3102C63.7382 22.7588 62.9631 22.485 61.9972 22.485H57.3429V28.5511H61.8804Z" fill="white"/>
<path d="M81.8335 31.8051C79.8316 31.8051 78.0361 31.3475 76.4548 30.4284C74.8735 29.5132 73.6349 28.2539 72.743 26.6581C71.8472 25.0585 71.3993 23.2828 71.3993 21.3273C71.3993 19.3365 71.8433 17.5491 72.7274 15.973C73.6115 14.3929 74.8462 13.1531 76.4275 12.2574C78.0088 11.3579 79.8121 10.9081 81.8335 10.9081C83.8588 10.9081 85.6621 11.3579 87.2434 12.2574C88.8247 13.1531 90.0594 14.3929 90.9435 15.973C91.8276 17.5491 92.2677 19.3365 92.2677 21.3273C92.2677 23.2828 91.8276 25.0585 90.9435 26.6581C90.0594 28.2539 88.8247 29.5132 87.2434 30.4284C85.6621 31.3475 83.8588 31.8051 81.8335 31.8051ZM81.8335 28.6411C83.2123 28.6411 84.4197 28.3125 85.4596 27.6633C86.5034 27.0101 87.3057 26.134 87.8783 25.0272C88.4469 23.9243 88.7312 22.6883 88.7312 21.3273C88.7312 19.9467 88.4469 18.7029 87.8783 17.6C87.3057 16.4931 86.5034 15.6327 85.4596 15.0108C84.4197 14.389 83.2123 14.0761 81.8335 14.0761C80.4586 14.0761 79.2551 14.389 78.223 15.0108C77.1948 15.6327 76.3924 16.4931 75.8238 17.6C75.2513 18.7029 74.9669 19.9467 74.9669 21.3273C74.9669 22.6883 75.2513 23.9243 75.8238 25.0272C76.3924 26.134 77.1987 27.0101 78.2386 27.6633C79.2824 28.3125 80.4781 28.6411 81.8335 28.6411Z" fill="white"/>
<path d="M113.136 28.1952V35.9196H109.837V31.4219H96.2482V35.9196H92.9766V28.1952H95.3057C95.8354 27.1509 96.2521 26.0793 96.5559 24.9842C96.8636 23.8891 97.0817 22.6492 97.2219 21.2686L98.254 11.2953H110.69V28.1952H113.136ZM100.579 21.9218C100.326 24.1902 99.7964 26.2827 98.9902 28.1952H107.271V14.522H101.378L100.579 21.9218Z" fill="white"/>
<path d="M125.132 31.8051C123.13 31.8051 121.335 31.3475 119.753 30.4284C118.172 29.5132 116.934 28.2539 116.042 26.6581C115.146 25.0585 114.698 23.2828 114.698 21.3273C114.698 19.3365 115.142 17.5491 116.026 15.973C116.91 14.3929 118.145 13.1531 119.726 12.2574C121.307 11.3579 123.111 10.9081 125.132 10.9081C127.157 10.9081 128.961 11.3579 130.542 12.2574C132.123 13.1531 133.358 14.3929 134.242 15.973C135.126 17.5491 135.566 19.3365 135.566 21.3273C135.566 23.2828 135.126 25.0585 134.242 26.6581C133.358 28.2539 132.123 29.5132 130.542 30.4284C128.961 31.3475 127.157 31.8051 125.132 31.8051ZM125.132 28.6411C126.511 28.6411 127.718 28.3125 128.758 27.6633C129.802 27.0101 130.604 26.134 131.177 25.0272C131.745 23.9243 132.03 22.6883 132.03 21.3273C132.03 19.9467 131.745 18.7029 131.177 17.6C130.604 16.4931 129.802 15.6327 128.758 15.0108C127.718 14.389 126.511 14.0761 125.132 14.0761C123.757 14.0761 122.554 14.389 121.522 15.0108C120.493 15.6327 119.691 16.4931 119.122 17.6C118.55 18.7029 118.266 19.9467 118.266 21.3273C118.266 22.6883 118.55 23.9243 119.122 25.0272C119.691 26.134 120.497 27.0101 121.537 27.6633C122.577 28.3125 123.777 28.6411 125.132 28.6411Z" fill="white"/>
<path d="M154.608 31.3045V31.4219H150.511L142.85 22.4224V31.4219H139.372V11.2953H142.85V20.3221L150.039 11.2953H153.989V11.3852L146.09 21.2686L154.608 31.3045Z" fill="white"/>
<path d="M175.153 31.3319V31.4218H171.527L169.876 27.7806H160.474L158.853 31.4218H155.196V31.3632L164.661 11.1779H165.72L175.153 31.3319ZM165.19 16.8021C164.758 17.9833 164.306 19.1292 163.835 20.2321L161.654 25.0272H168.727L166.546 20.2321C165.996 19.0119 165.545 17.8659 165.19 16.8021Z" fill="white"/>
<path d="M177.747 11.2953H181.225V19.6729H190.982V11.2953H194.46V31.4219H190.982V22.8956H181.225V31.4219H177.747V11.2953Z" fill="white"/>
<path d="M217.007 31.3319V31.4218H213.381L211.73 27.7806H202.327L200.707 31.4218H197.054V31.3632L206.514 11.1779H207.574L217.007 31.3319ZM207.044 16.8021C206.612 17.9833 206.16 19.1292 205.689 20.2321L203.508 25.0272H210.581L208.399 20.2321C207.85 19.0119 207.398 17.8659 207.044 16.8021Z" fill="white"/>
<path d="M218.129 28.7271C219.11 28.6489 219.889 28.3595 220.469 27.8549C221.05 27.3504 221.505 26.5721 221.84 25.5161C222.175 24.4601 222.448 22.9973 222.666 21.12L223.757 11.2953H236.341V31.4219H232.863V14.522H226.763L225.907 22.2464C225.653 24.4757 225.229 26.2631 224.641 27.6046C224.053 28.9461 223.266 29.9356 222.284 30.5771C221.299 31.2185 220.072 31.5783 218.6 31.6604L218.129 28.7271Z" fill="white"/>
</svg>
