<svg width="32" height="32" viewBox="0 0 32 32" fill="none" xmlns="http://www.w3.org/2000/svg">
<path d="M9.66634 20.6667C12.0596 20.6667 13.9997 18.7266 13.9997 16.3333C13.9997 13.9401 12.0596 12 9.66634 12C7.27311 12 5.33301 13.9401 5.33301 16.3333C5.33301 18.7266 7.27311 20.6667 9.66634 20.6667Z" stroke="white" stroke-width="2" stroke-linecap="round" stroke-linejoin="round"/>
<path d="M22.3332 20.6665C19.9399 20.6665 17.9998 18.7264 17.9998 16.3332C17.9998 13.94 19.9399 11.9999 22.3332 11.9999C24.7264 11.9999 26.6665 13.94 26.6665 16.3332C26.6665 18.7264 24.7264 20.6665 22.3332 20.6665Z" stroke="white" stroke-width="2" stroke-linecap="round" stroke-linejoin="round"/>
<path d="M13.3332 13.9999C13.6665 12.6666 14.6665 11.3333 15.9998 11.3333C17.3332 11.3333 18.3332 12.6666 18.6665 13.9999M2.6665 15.9999H5.33317H2.6665ZM29.3332 15.9999H26.6665H29.3332Z" stroke="white" stroke-width="2" stroke-linecap="round" stroke-linejoin="round"/>
</svg>
