<svg width="138" height="74" viewBox="0 0 138 74" fill="none" xmlns="http://www.w3.org/2000/svg">
<path fill-rule="evenodd" clip-rule="evenodd" d="M7.47263 -8.62401C16.4186 -13.398 25.4766 -17.752 38.7626 -17.934C45.2306 -18.018 54.2046 -16.744 63.6406 -12.796C69.3526 -10.388 74.5046 -6.45401 79.9786 -3.83601C86.2506 -0.826006 92.7326 0.741995 97.2686 0.839994C112.249 1.14799 115.483 -3.06601 126.431 -7.35001C130.099 -8.77801 134.229 -9.74401 136.595 -5.51601C138.947 -1.28801 136.063 2.842 132.647 4.22799C125.647 7.042 112.025 14.378 96.8626 14.658C91.6966 14.756 85.3126 13.3 78.7746 10.416C71.6486 7.26599 64.3546 2.74399 56.8506 -0.364006C50.9986 -2.78601 44.3206 -4.52201 38.7766 -4.52201C27.9266 -4.52201 22.3546 -1.14801 12.8346 4.08799C9.23663 6.06199 4.85463 7.18199 1.83063 3.09399C-1.20737 -0.994007 2.20863 -5.81001 7.47263 -8.62401Z" fill="white" fill-opacity="0.33"/>
<path fill-rule="evenodd" clip-rule="evenodd" d="M7.32987 21.294C16.2899 16.52 25.3479 12.166 38.6339 11.984C45.0879 11.886 54.0619 13.174 63.4979 17.122C69.2239 19.516 74.3619 23.45 79.8499 26.082C86.1079 29.092 92.6039 30.66 97.1399 30.758C112.12 31.066 115.354 26.852 126.302 22.568C129.956 21.14 134.1 20.174 136.452 24.402C138.818 28.63 135.934 32.76 132.504 34.132C125.504 36.96 111.896 44.296 96.7199 44.576C91.5539 44.674 85.1839 43.218 78.6319 40.334C71.5199 37.184 64.2259 32.662 56.7219 29.554C50.8559 27.132 44.1919 25.396 38.6479 25.396C27.7839 25.396 22.2119 28.77 12.6919 33.992C9.09387 35.966 4.72587 37.1 1.68787 33.012C-1.33613 28.924 2.07987 24.108 7.32987 21.294Z" fill="white" fill-opacity="0.33"/>
<path fill-rule="evenodd" clip-rule="evenodd" d="M7.32987 50.652C16.2899 45.864 25.3479 41.524 38.6339 41.342C45.0879 41.244 54.0619 42.532 63.4979 46.48C69.2239 48.874 74.3619 52.808 79.8499 55.44C86.1079 58.45 92.6039 60.018 97.1399 60.102C112.12 60.41 115.354 56.196 126.302 51.912C129.956 50.484 134.1 49.518 136.452 53.76C138.818 57.988 135.934 62.104 132.504 63.49C125.504 66.318 111.896 73.654 96.7199 73.934C91.5539 74.032 85.1839 72.576 78.6319 69.678C71.5199 66.528 64.2259 62.02 56.7219 58.912C50.8559 56.476 44.1919 54.74 38.6479 54.74C27.7839 54.74 22.2119 58.128 12.6919 63.35C9.09387 65.324 4.72587 66.444 1.68787 62.356C-1.33613 58.282 2.07987 53.452 7.32987 50.652Z" fill="white" fill-opacity="0.33"/>
</svg>
